<svg xmlns="http://www.w3.org/2000/svg" xmlns:xlink="http://www.w3.org/1999/xlink" version="1.1" x="0px" y="0px" viewBox="0 0 100 125" style="enable-background:new 0 0 100 100;" xml:space="preserve"><g><rect x="5" y="64.4" width="78.4" height="10.2"/><rect x="84.5" y="64.4" width="2.6" height="10.2"/><rect x="88.6" y="64.4" width="2.6" height="10.2"/><rect x="92.3" y="64.4" width="2.6" height="10.2"/></g><path d="M85.8,47.5c-0.8,0-1.5,0.1-2.1,0.4c-0.1-1.3-0.4-2.4-1-3.5c0.9-1.3,1.4-3,1.4-4.7c0-4.7-3.8-8.5-8.5-8.5  c-0.5,0-1,0-1.4,0.1c-1.7-3.5-5.3-5.9-9.5-5.9c-5.9,0-10.6,4.7-10.6,10.6c0,5.9,4.7,10.6,10.6,10.6c0.7,0,1.4-0.1,2-0.2  c-0.2,0.7-0.2,1.3-0.2,2c0,4.8,3.9,8.6,8.6,8.6c1.9,0,3.6-0.6,5-1.6c0.8,2.4,3.1,4.2,5.8,4.2c3.4,0,6.1-2.7,6.1-6.1  C91.9,50.2,89.2,47.5,85.8,47.5z"/><text x="0" y="115" fill="#000000" font-size="5px" font-weight="bold" font-family="'Helvetica Neue', Helvetica, Arial-Unicode, Arial, Sans-serif">Created by Ecem Afacan</text><text x="0" y="120" fill="#000000" font-size="5px" font-weight="bold" font-family="'Helvetica Neue', Helvetica, Arial-Unicode, Arial, Sans-serif">from the Noun Project</text></svg>